<?xml version="1.0" encoding="UTF-8" standalone="no"?>
<svg
   xmlns:dc="http://purl.org/dc/elements/1.1/"
   xmlns:cc="http://creativecommons.org/ns#"
   xmlns:rdf="http://www.w3.org/1999/02/22-rdf-syntax-ns#"
   xmlns:svg="http://www.w3.org/2000/svg"
   xmlns="http://www.w3.org/2000/svg"
   xmlns:xlink="http://www.w3.org/1999/xlink"
   xmlns:sodipodi="http://sodipodi.sourceforge.net/DTD/sodipodi-0.dtd"
   xmlns:inkscape="http://www.inkscape.org/namespaces/inkscape"
   width="1366.0px"
   height="768.0px"
   viewBox="0 0 1366.0 768.0"
   version="1.1"
   id="SVGRoot"
   sodipodi:docname="bootsplash.svg"
   inkscape:export-filename="/var/home/drath/bitmapa.png"
   inkscape:export-xdpi="96"
   inkscape:export-ydpi="96"
   inkscape:version="1.0.2 (e86c870879, 2021-01-15)">
  <defs
     id="defs18" />
  <sodipodi:namedview
     id="base"
     pagecolor="#ffffff"
     bordercolor="#666666"
     borderopacity="1.0"
     inkscape:pageopacity="0.0"
     inkscape:pageshadow="2"
     inkscape:zoom="0.70710678"
     inkscape:cx="596.54454"
     inkscape:cy="254.89961"
     inkscape:document-units="px"
     inkscape:current-layer="layer1"
     inkscape:document-rotation="0"
     showgrid="false"
     inkscape:window-width="1920"
     inkscape:window-height="1011"
     inkscape:window-x="0"
     inkscape:window-y="0"
     inkscape:window-maximized="1"
     inkscape:pagecheckerboard="false" />
  <metadata
     id="metadata21">
    <rdf:RDF>
      <cc:Work
         rdf:about="">
        <dc:format>image/svg+xml</dc:format>
        <dc:type
           rdf:resource="http://purl.org/dc/dcmitype/StillImage" />
        <dc:title></dc:title>
      </cc:Work>
    </rdf:RDF>
  </metadata>
  <g
     inkscape:label="Warstwa 1"
     inkscape:groupmode="layer"
     id="layer1">
    <rect
       style="opacity:0.995;fill:#000000;stroke-width:1.15714"
       id="rect33"
       width="1366"
       height="768"
       x="0"
       y="0"
       ry="0" />
    <path
       d="m 959.69888,273.2644 v 8.36044 h -1.40208 v -6.44301 h -0.0889 l -2.32518,6.44301 h -1.2069 l -2.30749,-6.44301 v 6.44301 h -1.4202 v -8.36044 h 2.11274 l 2.32517,6.54966 2.2001,-6.54966 h 2.11273 m -9.65572,0 v 1.20667 h -2.71599 v 7.1529 h -1.40212 v -7.1529 h -2.71466 v -1.20667 h 6.83277 m -35.10891,-12.47836 c 2.11143,-6.83404 2.11143,-10.86284 0.0889,-13.49021 -1.50953,-1.81041 -3.71005,-2.71562 -7.04646,-2.71562 -7.43712,0 -11.55523,4.22456 -14.87559,14.80302 -2.12926,6.94017 -2.12926,10.96897 -0.10633,13.57933 1.40207,1.72129 3.72683,2.62693 7.04646,2.62693 7.33125,0 11.57287,-4.13549 14.89299,-14.80345 z m 29.07416,-15.30062 c 2.91026,3.63915 3.53203,8.25431 1.81015,13.89868 -4.82785,15.60202 -23.03917,24.54788 -50.01932,24.54788 -16.09921,0 -27.05076,-3.12366 -31.89646,-9.15901 -2.9114,-3.62037 -3.4081,-8.34255 -1.70381,-13.98693 4.82739,-15.60208 23.03872,-24.54793 50.01837,-24.54793 15.9931,0 27.06908,3.21277 31.79059,9.24731 m -100.62461,-7.73918 h 28.57724 c -1.72149,2.30795 -32.80187,44.07349 -33.31578,44.7838 h -43.86085 c -0.21277,-1.31368 -5.44867,-43.16828 -5.64438,-44.7838 h 26.87422 c 0.19446,1.31361 3.92227,31.40024 3.92227,31.40024 0,0 23.0388,-30.7965 23.44728,-31.40024 m -88.66108,23.0398 c 2.1123,-6.83404 2.21932,-10.86284 0.10621,-13.49021 -1.41987,-1.81041 -3.7265,-2.71562 -6.94016,-2.71562 -7.45437,0 -11.67893,4.22456 -14.89259,14.80302 -2.21845,6.94017 -2.21845,10.96897 -0.10656,13.57933 1.40237,1.72129 3.72784,2.62693 6.94017,2.62693 7.45568,0 11.68025,-4.13549 14.89297,-14.80345 z m 29.18098,-15.30062 c 2.92831,3.63915 3.5325,8.25431 1.7217,13.89868 -4.82748,15.60202 -23.05687,24.54788 -49.91275,24.54788 -16.09925,0 -27.06865,-3.12366 -31.91448,-9.15901 -2.91088,-3.62037 -3.51419,-8.34255 -1.80997,-13.98693 4.93451,-15.60208 23.14556,-24.54793 50.01896,-24.54793 16.09873,0 27.0686,3.21277 31.89654,9.24731 M 699.7859,243.2853 c 1.10046,1.40238 1.70427,2.80387 1.40235,4.8275 l -11.16473,34.50638 h -29.58895 l 10.47313,-32.19799 c 0.39015,-1.40238 -0.10656,-2.60942 -0.90565,-3.51463 -1.42025,-1.72173 -4.43727,-2.82219 -14.80297,-2.11268 0,0 -12.26479,37.32857 -12.47842,37.8253 h -29.57193 c 0.28483,-0.799 13.88078,-42.35133 14.07605,-42.75981 10.27787,-1.81041 23.85589,-3.51463 37.94941,-3.51463 19.11583,3.8e-4 30.77772,2.30795 34.61171,6.94056 m -107.97276,9.46097 c 0.6038,-2.82226 -0.3014,-4.9345 -1.31407,-6.14161 -1.10008,-1.41983 -3.53212,-3.23067 -8.55488,-3.23067 -7.13544,0 -12.47843,3.42599 -14.28921,9.15907 l -3.51468,13.18829 z m 24.84977,-0.10711 c 0,2.11232 -0.49672,3.92316 -0.9052,4.72173 -0.90514,0.21322 -52.52175,11.67979 -52.52175,11.67979 0,0 -0.51549,2.5208 1.40194,3.8336 2.52079,1.81079 5.23635,2.30795 9.8515,2.50328 11.3779,0.49717 26.78383,-6.14155 31.09834,-8.04108 -0.69244,2.20093 -5.13015,11.87506 -5.32548,12.37178 -1.91742,0.70994 -12.585,4.11799 -33.51249,4.22457 -7.9524,0.10655 -22.13415,-0.90521 -27.97387,-8.25388 -2.91088,-3.62031 -3.42511,-8.75051 -1.41981,-15.19353 4.73917,-15.38974 22.45395,-24.24647 48.40418,-24.24647 14.50199,0 23.96253,2.71561 28.29367,8.04064 1.70377,2.21846 2.60897,5.04065 2.60897,8.35957 M 515.9318,215.91391 h 29.288 c -0.60337,1.89955 -20.32338,65.49778 -20.64317,66.61613 h -29.2696 c 0.60286,-1.91698 20.32286,-65.51522 20.62477,-66.61613"
       id="path105"
       style="fill:#ffffff;fill-opacity:1;stroke-width:0.436888" />
    <g
       id="g1859"
       transform="matrix(0.69348053,0,0,0.69348053,-25.150455,80.105939)">
      <g
         id="g1457"
         style="fill:#ffffff;fill-opacity:1"
         transform="matrix(0.21998215,0,0,0.21998215,874.46074,302.15496)">
        <path
           d="M 148.419,40.725 C 137.843,34.44 134.762,36.625 125.266,29.054 110.441,17.237 92.488,3.794 74.861,0 c 0,0 4.307,3.492 12.283,9.822 0.559,0.465 0.705,0.684 0.595,0.867 -0.169,0.287 -0.928,-0.046 -0.928,-0.046 -6.163,-2.345 -13.123,-3.675 -17.839,-3.37 -1.561,0.1 -2.061,0.352 -2.283,0.797 -0.104,0.209 -0.119,0.772 0.405,1.469 2.061,2.725 7.024,8.064 15.281,13.132 8.486,5.206 23.472,12.592 36.726,18.489 5.932,2.638 10.207,6.164 8.846,10.232 -1.52,4.533 -7.387,5.15 -12.074,3.275 C 112.065,53.144 108.506,48.37 102.725,41.966 92.709,30.868 87.956,26.441 71.335,29.825 63.003,31.522 55.141,38.341 48.853,45.538 44.657,50.83 42.64,55.232 42.032,60.54 c 0,0 -1.146,-2.105 -0.008,-7.49 1.989,-9.407 -2.341,-13.447 -2.341,-13.447 -21.925,31.092 9.261,59.202 33.301,32.281 0,0 -7.865,17.467 -7.21,22.906 -3.355,1.1 -4.845,4.186 0.176,7.91 5.486,4.068 18.961,3.716 29.59,-0.852 19.845,-8.529 32.213,-24.423 38.344,-34.516 1.432,-2.36 2.947,-3.508 3.996,-3.883 1.591,-0.574 12.537,0.086 17.662,-2.824 0.713,0.347 1.621,0.533 2.817,0.442 3.714,-0.282 5.976,-4.727 5.976,-4.727 0,0 -4.687,-8.941 -15.916,-15.615 z m -41.142,44.652 c -10.166,7.24 -21.192,9.26 -28.008,6.262 10.782,-7.818 30.624,-27.373 30.624,-27.373 0,0 -3.302,-8.318 -9.257,-3.225 -5.76,4.925 -11.081,11.078 -13.184,13.043 -1.301,1.213 -3.508,3.506 -4.812,2.52 -1.587,-1.199 3.137,-11.825 6.749,-20.631 4.928,-12.01 -0.742,-15.762 -7.379,-15.429 -5.947,0.299 -14.071,3.903 -19.891,7.462 -1.648,1.009 -2.773,1.629 -3.189,1.244 -0.364,-0.339 0.021,-0.977 1.102,-1.89 15.471,-13.108 37.549,-12.767 39.523,-3.175 1.571,7.65 -14.771,26.914 -13.697,27.223 0.104,0.029 0.338,-0.088 0.68,-0.322 5.364,-7.021 15.521,-17.801 19.331,-17.384 6.827,0.746 9.183,9.794 9.183,9.794 L 92.291,84.034 c 4.701,1.277 9.842,1.738 14.986,1.343 z"
           id="path1455"
           style="fill:#ffffff;fill-opacity:1" />
      </g>
      <g
         id="g1475"
         style="fill:#ffffff;fill-opacity:1"
         transform="matrix(0.63192341,0,0,0.63192341,749.69462,230.09676)">
        <path
           d="m 22.847,125.501 -2.686,4.695 c -1.473,-1.389 -3.449,-2.084 -5.925,-2.084 -2.377,0 -4.256,0.791 -5.637,2.373 -1.381,1.582 -2.072,3.77 -2.072,6.565 0,5.641 2.687,8.461 8.06,8.461 2.326,0 4.377,-0.771 6.151,-2.31 l 2.309,4.945 c -1.824,1.139 -3.418,1.857 -4.782,2.159 -1.365,0.302 -2.975,0.452 -4.833,0.452 -4.15,0 -7.428,-1.209 -9.829,-3.629 C 1.201,144.712 0,141.353 0,137.051 c 0,-4.235 1.313,-7.657 3.942,-10.269 2.628,-2.611 6.209,-3.916 10.746,-3.916 3.129,0 5.849,0.878 8.159,2.635 z"
           id="path1459"
           style="fill:#ffffff;fill-opacity:1" />
        <path
           d="m 23.947,136.749 c 0,-4.101 1.184,-7.439 3.552,-10.017 2.368,-2.578 5.494,-3.866 9.377,-3.866 4.084,0 7.255,1.238 9.516,3.715 2.259,2.478 3.389,5.867 3.389,10.168 0,4.285 -1.151,7.691 -3.452,10.219 -2.302,2.527 -5.452,3.791 -9.453,3.791 -4.083,0 -7.26,-1.275 -9.527,-3.829 -2.269,-2.552 -3.402,-5.946 -3.402,-10.181 z m 6.527,0 c 0,5.926 2.134,8.889 6.402,8.889 1.958,0 3.511,-0.771 4.658,-2.311 1.146,-1.539 1.72,-3.732 1.72,-6.578 0,-5.84 -2.126,-8.762 -6.377,-8.762 -1.958,0 -3.514,0.77 -4.669,2.31 -1.156,1.54 -1.734,3.69 -1.734,6.452 z"
           id="path1461"
           style="fill:#ffffff;fill-opacity:1" />
        <path
           d="m 69.315,129.218 c -1.121,-0.736 -2.352,-1.105 -3.69,-1.105 -1.457,0 -2.749,0.662 -3.879,1.984 -1.129,1.321 -1.694,2.937 -1.694,4.846 v 15.314 h -6.277 v -26.89 h 6.277 v 2.462 c 1.757,-1.977 4.092,-2.963 7.004,-2.963 2.142,0 3.783,0.326 4.921,0.979 z"
           id="path1463"
           style="fill:#ffffff;fill-opacity:1" />
        <path
           d="M 96.145,138.733 H 76.938 c 0.117,2.143 0.854,3.808 2.209,4.996 1.355,1.188 3.18,1.782 5.473,1.782 2.862,0 5.038,-0.745 6.527,-2.235 l 2.436,4.795 c -2.21,1.792 -5.507,2.688 -9.892,2.688 -4.102,0 -7.344,-1.201 -9.729,-3.603 -2.385,-2.401 -3.578,-5.754 -3.578,-10.056 0,-4.234 1.31,-7.665 3.929,-10.293 2.62,-2.629 5.762,-3.941 9.428,-3.941 3.899,0 7.03,1.162 9.391,3.489 2.359,2.327 3.539,5.289 3.539,8.888 10e-4,0.77 -0.175,1.933 -0.526,3.49 z m -18.981,-4.72 h 13.207 c -0.436,-3.933 -2.612,-5.9 -6.528,-5.9 -3.582,-0.001 -5.809,1.967 -6.679,5.9 z"
           id="path1465"
           style="fill:#ffffff;fill-opacity:1" />
        <path
           d="m 104.08,148.774 -1.406,1.984 H 99.135 V 113.35 l 6.276,-1.507 v 12.553 c 1.673,-1.021 3.497,-1.53 5.474,-1.53 3.932,0 7.104,1.242 9.515,3.728 2.411,2.485 3.615,5.671 3.615,9.554 0,4.502 -1.214,8.062 -3.64,10.683 -2.428,2.62 -5.717,3.929 -9.867,3.929 -2.494,-0.001 -4.637,-0.662 -6.428,-1.986 z m 1.331,-19.003 v 14.033 c 0.92,1.088 2.167,1.633 3.741,1.633 3.028,0 5.175,-0.72 6.439,-2.16 1.264,-1.438 1.895,-3.74 1.895,-6.904 0,-5.455 -2.609,-8.184 -7.832,-8.184 -1.858,-0.001 -3.272,0.526 -4.243,1.582 z"
           id="path1467"
           style="fill:#ffffff;fill-opacity:1" />
        <path
           d="m 125.725,136.749 c 0,-4.101 1.184,-7.439 3.553,-10.017 2.367,-2.577 5.493,-3.866 9.376,-3.866 4.085,0 7.257,1.238 9.517,3.715 2.259,2.478 3.389,5.867 3.389,10.168 0,4.285 -1.15,7.691 -3.451,10.219 -2.303,2.527 -5.453,3.791 -9.454,3.791 -4.083,0 -7.26,-1.275 -9.527,-3.829 -2.271,-2.552 -3.403,-5.946 -3.403,-10.181 z m 6.527,0 c 0,5.926 2.134,8.889 6.401,8.889 1.959,0 3.511,-0.771 4.657,-2.311 1.146,-1.539 1.721,-3.732 1.721,-6.578 0,-5.84 -2.127,-8.762 -6.378,-8.762 -1.958,0 -3.515,0.77 -4.669,2.31 -1.155,1.54 -1.732,3.69 -1.732,6.452 z"
           id="path1469"
           style="fill:#ffffff;fill-opacity:1" />
        <path
           d="m 152.766,136.749 c 0,-4.101 1.184,-7.439 3.553,-10.017 2.369,-2.578 5.494,-3.866 9.377,-3.866 4.084,0 7.256,1.238 9.516,3.715 2.26,2.478 3.39,5.867 3.39,10.168 0,4.285 -1.151,7.691 -3.452,10.219 -2.302,2.527 -5.452,3.791 -9.453,3.791 -4.083,0 -7.26,-1.275 -9.527,-3.829 -2.271,-2.552 -3.404,-5.946 -3.404,-10.181 z m 6.528,0 c 0,5.926 2.134,8.889 6.401,8.889 1.959,0 3.512,-0.771 4.658,-2.311 1.146,-1.539 1.719,-3.732 1.719,-6.578 0,-5.84 -2.125,-8.762 -6.377,-8.762 -1.957,0 -3.514,0.77 -4.669,2.31 -1.155,1.54 -1.732,3.69 -1.732,6.452 z"
           id="path1471"
           style="fill:#ffffff;fill-opacity:1" />
        <path
           d="m 181.49,128.414 h -3.112 v -5.047 h 3.112 v -5.473 l 6.277,-2.31 v 7.782 h 7.381 v 5.047 h -7.381 v 11.774 c 0,1.926 0.301,3.285 0.903,4.08 0.602,0.795 1.657,1.193 3.163,1.193 1.508,0 2.912,-0.41 4.219,-1.23 v 5.773 c -1.457,0.502 -3.531,0.754 -6.227,0.754 -2.678,0 -4.736,-0.758 -6.176,-2.272 -1.44,-1.514 -2.16,-3.669 -2.16,-6.464 v -13.607 z"
           id="path1473"
           style="fill:#ffffff;fill-opacity:1" />
      </g>
    </g>
    <g
       style="display:inline;fill:#000000;fill-rule:evenodd;stroke:#000000;stroke-linecap:round;stroke-linejoin:round;fill-opacity:1"
       id="g1846"
       transform="matrix(0.69392741,0,0,0.69392741,897.71147,215.04458)">
      <use
         xlink:href="#A"
         x="0.5"
         y="0.5"
         id="use1827"
         width="100%"
         height="100%"
         style="fill:#000000;fill-opacity:1" />
      <symbol
         id="A"
         overflow="visible"
         style="fill:#000000;fill-opacity:1">
        <path
           d="m 9.457,0.75 v 3.022 h -3 v 20.12 H 3.022 V 3.773 H 0 V 0.75 Z m 4.16,5.624 h 0.065 c 0.455,-0.877 1.3,-1.3 2.145,-1.3 2.373,0 2.405,1.397 2.405,3.348 v 15.47 h -3.12 V 8.876 c 0,-0.52 -0.032,-1.138 -0.683,-1.138 -0.78,0 -0.813,0.618 -0.813,1.138 v 15.016 h -3.12 V 0.75 h 3.12 v 5.623 z m 6.11,17.518 V 5.3 h 3.12 v 18.6 h -3.12 z M 24.34,5.3 h 3.12 v 1.073 h 0.065 c 0.455,-0.877 1.3,-1.3 2.146,-1.3 2.373,0 2.405,1.397 2.405,3.348 v 15.47 h -3.12 V 8.876 c 0,-0.52 -0.032,-1.138 -0.683,-1.138 -0.78,0 -0.813,0.618 -0.813,1.138 v 15.016 h -3.12 z m 9.102,18.592 V 0.75 h 3.12 v 13.1 h 0.13 l 1.7,-8.548 h 3.12 L 39.724,13.688 41.6,23.892 H 38.414 L 36.7,14.1 h -0.13 v 9.783 h -3.12 z m 9.23,0 V 0.75 h 3.607 c 3.803,0 5.493,1.43 5.396,4.518 v 5.005 c 0.032,3.77 -1.886,4.94 -5.558,4.745 v 8.873 h -3.445 z m 3.445,-11.636 c 1.007,0 2.015,0.033 2.112,-1.04 V 5.724 c 0,-2.146 -0.747,-2.308 -2.112,-2.2 v 8.742 z M 60.97,23.892 H 58.044 C 57.85,23.492 57.85,23.047 57.85,22.624 h -0.065 c -0.65,1.072 -1.138,1.495 -2.438,1.495 -1.365,0 -2.112,-0.748 -2.112,-2.146 v -6.24 c 0,-3.77 4.518,-1.787 4.518,-6.532 0,-0.553 0.13,-1.853 -0.618,-1.853 -0.9,0 -0.747,1.495 -0.747,2.145 v 2.438 H 53.236 V 8.193 c 0,-1.917 1.495,-3.12 3.867,-3.12 2.372,0 3.868,1.203 3.868,3.12 v 15.7 z m -3.12,-9.62 c -0.878,0.52 -1.495,0.9 -1.495,1.885 v 4.68 c 0.064,0.4 0.324,0.65 0.747,0.617 0.423,-0.065 0.748,-0.325 0.748,-0.748 V 14.27 Z m 12.155,9.62 h -3.12 V 22.787 H 66.82 c -0.487,0.683 -1.3,1.333 -2.242,1.333 -1.203,0 -2.308,-0.65 -2.308,-2.178 V 7.25 c 0,-1.527 1.104,-2.178 2.308,-2.178 1.007,0 1.787,0.683 2.242,1.397 h 0.065 V 0.75 h 3.12 z M 65.4,20.316 c 0,0.975 0.357,1.138 0.747,1.138 0.39,0 0.748,-0.163 0.748,-1.138 V 8.876 c 0,-0.975 -0.358,-1.138 -0.748,-1.138 -0.39,0 -0.747,0.162 -0.747,1.138 z"
           fill="#000000"
           fill-rule="nonzero"
           stroke="none"
           id="path1829"
           style="fill:#000000;fill-opacity:1" />
        <circle
           cx="21.25"
           cy="2"
           fill="#e32726"
           stroke="none"
           r="2"
           id="circle1831"
           style="fill:#000000;fill-opacity:1" />
      </symbol>
    </g>
  </g>
</svg>
